<?xml version="1.0" encoding="utf-8"?>
<!-- Generator: Adobe Illustrator 16.0.0, SVG Export Plug-In . SVG Version: 6.00 Build 0)  -->
<!DOCTYPE svg PUBLIC "-//W3C//DTD SVG 1.1//EN" "http://www.w3.org/Graphics/SVG/1.1/DTD/svg11.dtd">
<svg version="1.1" id="Camada_1" xmlns="http://www.w3.org/2000/svg" xmlns:xlink="http://www.w3.org/1999/xlink" x="0px" y="0px"
	 width="275.965px" height="149.981px" viewBox="0 0 275.965 149.981" enable-background="new 0 0 275.965 149.981"
	 xml:space="preserve">
<rect x="0" fill="none" width="274.966" height="149.981"/>
<path fill="#44C2CB" d="M258.672,72.083C287.423,19.941,243.598,5,243.598,5H15.351l55.046,142.513H250.61
	C302.5,110.32,258.672,72.083,258.672,72.083z M157.6,98.193V86.642h-11.942v-9.041H157.6V65.906h8.829v11.695h11.65v9.041h-11.65
	v11.552H157.6z M238.8,39.646c0,0-23.738,50.944-25.185,52.377c-1.448,1.436,0,2.44,0,2.44s15.196-0.575,19.396-0.575
	s3.328,3.3,3.328,3.3s0.579,15.354,0,17.508c-0.58,2.153-2.605,3.156-2.605,3.156s-51.816-0.573-55.654-0.573
	c-3.835,0-1.953-4.448-1.953-4.448s19.685-44.198,25.04-49.507c5.355-5.31-21.421-2.44-21.421-2.44V36.919c0,0,54.132,0.86,57.029,0
	C239.669,36.057,238.8,39.646,238.8,39.646z"/>
<g>
	<polygon fill="none" points="13.805,5.83 0.114,28.649 69.034,146.31 94.594,146.31 163.289,27.738 150.05,5.83 	"/>
	<g>
		<polygon fill="#324692" points="43.163,40.227 68.395,147.513 94.547,147.513 162.906,29.011 81.241,105.022 77.34,59.458 		"/>
	</g>
	<polygon fill="#4685BB" points="16.026,5 124.38,38.082 84.911,61.818 46.403,40.002 70.2,147.163 0,29.454 	"/>
	<polygon fill="#4685BB" points="46.403,40.002 46.92,42.341 77.34,59.458 78.708,75.419 81.241,105.022 83.167,103.231 
		84.911,61.818 	"/>
	<polygon fill="#324692" points="70.643,55.689 84.86,63.097 83.321,111.083 75.256,111.647 	"/>
</g>
</svg>
